<?xml version="1.0" standalone="no"?>
<!DOCTYPE svg PUBLIC "-//W3C//DTD SVG 20010904//EN"
 "http://www.w3.org/TR/2001/REC-SVG-20010904/DTD/svg10.dtd">
<svg version="1.0" xmlns="http://www.w3.org/2000/svg"
 width="223.000000pt" height="223.000000pt" viewBox="0 0 223.000000 223.000000"
 preserveAspectRatio="xMidYMid meet">
<metadata>
Created by potrace 1.11, written by Peter Selinger 2001-2013
</metadata>
<g transform="translate(0.000000,223.000000) scale(0.100000,-0.100000)"
fill="#000000" stroke="none">
<path d="M29 2052 c-23 -3 -26 -8 -26 -38 l1 -34 66 0 c38 -1 72 -6 82 -14 32
-24 46 -77 47 -181 6 -393 10 -471 30 -546 43 -163 110 -269 213 -335 76 -48
269 -108 418 -130 30 -5 60 -9 65 -10 6 -1 18 -2 29 -3 17 -1 18 -12 14 -198
-3 -168 -7 -203 -22 -233 -41 -78 -84 -100 -199 -104 -59 -2 -80 -15 -70 -43
4 -11 86 -13 443 -13 l438 0 -7 27 c-6 23 -12 26 -53 28 -131 6 -172 25 -210
98 -21 39 -22 58 -24 240 -2 178 -1 197 14 198 9 0 26 2 37 4 10 2 57 5 103 6
131 3 247 32 287 72 7 8 37 29 67 47 104 66 172 163 218 314 31 99 38 174 39
426 1 129 6 252 12 272 16 60 42 78 116 78 35 0 63 3 64 8 0 4 3 19 5 35 5 31
9 30 -126 29 -108 -1 -161 -12 -227 -45 -66 -34 -111 -146 -129 -317 -4 -36
-8 -76 -9 -90 -2 -14 -3 -67 -4 -118 l-1 -93 -30 21 c-79 56 -213 90 -356 90
l-85 0 2 176 c2 157 4 180 23 217 30 59 93 84 226 87 11 0 16 11 17 35 0 19
-2 36 -6 36 -17 3 -798 5 -807 1 -7 -2 -12 -19 -12 -38 0 -25 5 -34 17 -35 98
-5 185 -21 195 -38 3 -4 -23 -8 -57 -8 -152 2 -237 -26 -364 -119 -21 -15 -22
-14 -38 42 -32 110 -77 155 -184 184 -43 11 -187 18 -242 12z m925 -191 c11
-10 15 -49 16 -187 l1 -174 -66 0 c-57 0 -66 -2 -63 -17 2 -12 14 -18 42 -19
21 -2 49 -5 62 -8 l24 -6 0 -275 c0 -180 -4 -276 -11 -280 -18 -12 -152 -8
-199 5 -138 38 -228 130 -245 250 -11 75 -14 128 -15 293 l-1 159 34 72 c52
109 124 172 224 195 51 12 179 6 197 -8z m521 -468 c79 -42 128 -112 143 -205
11 -73 6 -126 -19 -192 -30 -81 -68 -110 -182 -136 -51 -12 -107 -20 -123 -18
l-29 3 -3 274 c-1 151 0 281 3 289 8 23 158 11 210 -15z"/>
</g>
</svg>
